<svg width="237" height="270" viewBox="0 0 237 270" fill="none" xmlns="http://www.w3.org/2000/svg">
<g clip-path="url(#clip0_34_977)">
<path d="M34.1999 269.5L2.8999 256.2L6.9999 248.2L38.1999 261.5L34.1999 269.5Z" fill="#FF99CC"/>
<path d="M133.1 196.3H98.0999V229.3H133.1V196.3Z" fill="#FF99CC"/>
<path d="M161.1 162.3H133.1V195.3H161.1V162.3Z" fill="#FF99CC"/>
<path d="M115.1 126.8H161.6V256.8H49.0999" stroke="#4D002E" stroke-width="3" stroke-miterlimit="10" stroke-linejoin="round"/>
<path d="M34.5999 210.3V126.8H48.0999" stroke="#4D002E" stroke-width="3" stroke-miterlimit="10" stroke-linejoin="round"/>
<path d="M32.7999 262.8L36.0999 256.8L4.1999 242.5L1.3999 249.1" stroke="#4D002E" stroke-width="3" stroke-miterlimit="10" stroke-linejoin="round"/>
<path d="M6.5 243.1L7.9 237.6C8.9 233.7 9.4 229.7 9.5 225.7L9.7 210C9.7 207.4 10.7 204.9 12.4 202.9L34.5 176.2" stroke="#4D002E" stroke-width="3" stroke-miterlimit="10" stroke-linejoin="round"/>
<path d="M33.5999 254.8L36.9999 250.5C40.2999 246.9 44.1999 246.1 47.9999 237.4C49.9999 232.7 51.9999 222.4 53.0999 218.8C54.1999 215.2 55.7999 205.4 55.7999 205.4C56.7999 202.5 55.3999 199.2 52.4999 198.1C49.3999 196.8 45.7999 198.4 44.6999 201.7C42.1999 208.7 37.7999 218.1 36.0999 220.2C35.1999 221.3 32.6999 222.2 30.8999 221.9" stroke="#4D002E" stroke-width="3" stroke-miterlimit="10" stroke-linejoin="round"/>
<path d="M103.1 191.8H152.1" stroke="#4D002E" stroke-width="3" stroke-miterlimit="10" stroke-linejoin="round"/>
<path d="M67.0999 224.8H152.1" stroke="#4D002E" stroke-width="3" stroke-miterlimit="10" stroke-linejoin="round"/>
<path d="M120.1 157.8H152.1" stroke="#4D002E" stroke-width="3" stroke-miterlimit="10" stroke-linejoin="round"/>
<path d="M127.6 243.3V149.3" stroke="#4D002E" stroke-width="3" stroke-miterlimit="10" stroke-linejoin="round"/>
<path d="M93.5999 243.3V204.3" stroke="#4D002E" stroke-width="3" stroke-miterlimit="10" stroke-linejoin="round"/>
<path d="M111.4 147.9C111.4 168 80.8 204.9 80.8 204.9C80.8 204.9 50.2 168 50.2 147.9C50.2 131 63.9 117.3 80.8 117.3C97.7 117.3 111.4 131 111.4 147.9Z" stroke="#4D002E" stroke-width="3" stroke-miterlimit="10" stroke-linejoin="round"/>
<path d="M83.0999 158.3C88.0704 158.3 92.0999 154.271 92.0999 149.3C92.0999 144.329 88.0704 140.3 83.0999 140.3C78.1293 140.3 74.0999 144.329 74.0999 149.3C74.0999 154.271 78.1293 158.3 83.0999 158.3Z" fill="#FF99CC"/>
<path d="M80.5999 155.8C85.5704 155.8 89.5999 151.771 89.5999 146.8C89.5999 141.829 85.5704 137.8 80.5999 137.8C75.6293 137.8 71.5999 141.829 71.5999 146.8C71.5999 151.771 75.6293 155.8 80.5999 155.8Z" stroke="#4D002E" stroke-width="3" stroke-miterlimit="10" stroke-linejoin="round"/>
<path d="M183.1 172.3V155.8C183.1 153.9 184.6 152.3 186.6 152.3H231.7C233.6 152.3 235.2 153.8 235.2 155.8V230.9C235.2 232.8 233.7 234.4 231.7 234.4H186.6C184.7 234.4 183.1 232.9 183.1 230.9V212.4" stroke="#4D002E" stroke-width="2" stroke-miterlimit="10" stroke-linejoin="round"/>
<path d="M206.1 158.3H212.1" stroke="#4D002E" stroke-width="2" stroke-miterlimit="10" stroke-linejoin="round"/>
<path d="M184.1 225.3H234.1" stroke="#4D002E" stroke-width="2" stroke-miterlimit="10" stroke-linejoin="round"/>
<path d="M230.9 148.2C231 146.4 231 144.6 231 142.8C231 132.8 229.6 123.1 227.1 113.9" stroke="#4D002E" stroke-width="2" stroke-miterlimit="10" stroke-linejoin="round" stroke-dasharray="3 3"/>
<path d="M166.6 243.5C171.9 241.2 176.9 238.5 181.7 235.5" stroke="#4D002E" stroke-width="2" stroke-miterlimit="10" stroke-linejoin="round" stroke-dasharray="3 3"/>
<path d="M17.3001 115.6C15.2001 124 14.1001 132.8 14.1001 141.9C14.1001 155.8 17.3001 171.2 22.1001 183.4" stroke="#4D002E" stroke-width="2" stroke-miterlimit="10" stroke-linejoin="round" stroke-dasharray="3 3"/>
<path d="M182.1 181.3V176L170.1 186.8L183.1 197.4V192.3H214.1V197.2L227.2 186.4L215.1 175.8V181.3H182.1Z" stroke="#FF7F48" stroke-width="2" stroke-miterlimit="10" stroke-linejoin="round"/>
<path d="M197.1 207.3H227.1" stroke="#4D002E" stroke-width="2" stroke-miterlimit="10" stroke-linejoin="round"/>
<path d="M197.1 215.3H215.1" stroke="#4D002E" stroke-width="2" stroke-miterlimit="10" stroke-linejoin="round"/>
<path d="M189.4 103.9C189.4 103.9 189.3 122.1 186.5 134.8" stroke="#4D002E" stroke-width="2" stroke-miterlimit="10" stroke-linejoin="round"/>
<path d="M204.2 103.9C204.2 103.9 204.2 121.9 207.5 134.8" stroke="#4D002E" stroke-width="2" stroke-miterlimit="10" stroke-linejoin="round"/>
<path d="M165.2 98.2001C166.4 99.5001 167.9 100.6 169.4 101.6C169 102.7 168.8 104 168.8 105.2C168.8 111.9 174.2 117.3 180.9 117.3" stroke="#FF7F48" stroke-width="2" stroke-miterlimit="10" stroke-linejoin="round"/>
<path d="M211.9 117.3C218.6 117.3 224 111.9 224 105.2C224 104.3 223.9 103.4 223.7 102.6C230.4 99.7 235 93.1 235 85.4C235 75.6 227.4 67.5 217.7 66.7C214.3 58.9 206.5 53.4 197.5 53.4C188.4 53.4 180.6 58.9 177.3 66.7C172.9 67 168.9 68.9 165.9 71.8" stroke="#FF7F48" stroke-width="2" stroke-miterlimit="10" stroke-linejoin="round"/>
<path d="M150.1 145.3L150 155.3" stroke="#4D002E" stroke-width="2" stroke-miterlimit="10" stroke-linejoin="round"/>
<path d="M167.1 134.3H214.1" stroke="#FF7F48" stroke-width="1.6272" stroke-miterlimit="10" stroke-linejoin="round"/>
<path d="M167.1 145.3H207.1" stroke="#FF7F48" stroke-width="1.4907" stroke-miterlimit="10" stroke-linejoin="round"/>
<path d="M214.1 146.3V128.9L219.6 125L225.1 128.9V146.3" stroke="#4D002E" stroke-width="2" stroke-miterlimit="10" stroke-linejoin="round"/>
<path d="M150.1 77.3L150 122.3" stroke="#4D002E" stroke-width="2" stroke-miterlimit="10" stroke-linejoin="round"/>
<path d="M134.1 122.3V97.3" stroke="#4D002E" stroke-width="2" stroke-miterlimit="10" stroke-linejoin="round"/>
<path d="M24.0999 96.3V154.3" stroke="#4D002E" stroke-width="2" stroke-miterlimit="10" stroke-linejoin="round"/>
<path d="M79.4999 43L140.1 95.3H18.8999L79.4999 43Z" stroke="#FF7F48" stroke-width="2" stroke-miterlimit="10" stroke-linejoin="round"/>
<path d="M71.0999 114.3V111.3H40.0999V122.3" stroke="#FF7F48" stroke-width="2" stroke-miterlimit="10" stroke-linejoin="round"/>
<path d="M118.1 122.3V111.3H87.0999V113.3" stroke="#FF7F48" stroke-width="2" stroke-miterlimit="10" stroke-linejoin="round"/>
<path d="M36.0999 79.3V54.3H48.0999V59.3" stroke="#4D002E" stroke-width="2" stroke-miterlimit="10" stroke-linejoin="round"/>
<path d="M78.5999 83.3C83.2943 83.3 87.0999 79.4945 87.0999 74.8C87.0999 70.1056 83.2943 66.3 78.5999 66.3C73.9054 66.3 70.0999 70.1056 70.0999 74.8C70.0999 79.4945 73.9054 83.3 78.5999 83.3Z" stroke="#4D002E" stroke-width="2" stroke-miterlimit="10" stroke-linejoin="round"/>
<path d="M150.6 77.3C153.637 77.3 156.1 74.8376 156.1 71.8C156.1 68.7625 153.637 66.3 150.6 66.3C147.562 66.3 145.1 68.7625 145.1 71.8C145.1 74.8376 147.562 77.3 150.6 77.3Z" stroke="#4D002E" stroke-width="2" stroke-miterlimit="10" stroke-linejoin="round"/>
<path d="M141.1 69.2999L134.6 62.5C131.5 59.4 131.5 54.3 134.6 51.2L150.1 66.3" stroke="#4D002E" stroke-width="2" stroke-miterlimit="10" stroke-linejoin="round"/>
<path d="M159.1 76.3L165.6 82.2001C168.7 85.3001 168.7 90.4 165.6 93.5L151.1 78.3" stroke="#4D002E" stroke-width="2" stroke-miterlimit="10" stroke-linejoin="round"/>
<path d="M134.9 81.9001L145.1 72.3" stroke="#4D002E" stroke-width="2" stroke-miterlimit="10" stroke-linejoin="round"/>
<path d="M150.1 77.3L142.2 85.9001" stroke="#4D002E" stroke-width="2" stroke-miterlimit="10" stroke-linejoin="round"/>
<path d="M151.1 66.3L160 56.9C163.1 53.8 168.2 53.8 171.3 56.9L156.2 72.3" stroke="#4D002E" stroke-width="2" stroke-miterlimit="10" stroke-linejoin="round"/>
</g>
<defs>
<clipPath id="clip0_34_977">
<rect width="236.1" height="227.5" fill="white" transform="translate(0 42)"/>
</clipPath>
</defs>
</svg>
